<svg height="512pt" viewBox="0 0 512 512" width="512pt" xmlns="http://www.w3.org/2000/svg" xmlns:xlink="http://www.w3.org/1999/xlink"><linearGradient id="a" gradientUnits="userSpaceOnUse" x1="74.9807" x2="437.0193" y1="74.9807" y2="437.0193"><stop offset="0" stop-color="#ff5a99"/><stop offset="1" stop-color="#e53c79"/></linearGradient><linearGradient id="b"><stop offset="0" stop-color="#a4f7f7"/><stop offset="1" stop-color="#76e2f8"/></linearGradient><linearGradient id="c" gradientUnits="userSpaceOnUse" x1="106.4994" x2="171.5668" xlink:href="#b" y1="131.1259" y2="196.1933"/><linearGradient id="d" gradientUnits="userSpaceOnUse" x1="327.0349" x2="392.1023" xlink:href="#b" y1="315.1084" y2="380.1758"/><linearGradient id="e"><stop offset="0" stop-color="#663325"/><stop offset="1" stop-color="#3c1b13"/></linearGradient><linearGradient id="f" gradientUnits="userSpaceOnUse" x1="301.6174" x2="366.2343" xlink:href="#e" y1="133.3085" y2="197.9254"/><linearGradient id="g" gradientUnits="userSpaceOnUse" x1="327.4641" x2="392.0811" xlink:href="#e" y1="107.4617" y2="172.0786"/><linearGradient id="h"><stop offset="0" stop-color="#ffda2d"/><stop offset="1" stop-color="#eebf00"/></linearGradient><linearGradient id="i" gradientUnits="userSpaceOnUse" x1="149.0386" x2="278.7891" xlink:href="#h" y1="234.1937" y2="363.9442"/><linearGradient id="j" gradientUnits="userSpaceOnUse" x1="181.347" x2="233.0406" xlink:href="#e" y1="279.4256" y2="331.1191"/><linearGradient id="k" gradientUnits="userSpaceOnUse" x1="340.3875" x2="379.1577" xlink:href="#h" y1="120.3851" y2="159.1552"/><path d="m512 256c0 141.386719-114.613281 256-256 256s-256-114.613281-256-256 114.613281-256 256-256 256 114.613281 256 256zm0 0" fill="url(#a)"/><path d="m145.730469 101.03125h-9.136719v74.675781c-2.859375-1.011719-5.933594-1.570312-9.136719-1.570312-15.117187 0-27.417969 12.296875-27.417969 27.414062 0 15.117188 12.300782 27.414063 27.417969 27.414063 15.117188 0 27.414063-12.296875 27.414063-27.414063v-80.683593c10.636718 3.777343 18.277344 13.941406 18.277344 25.855468v27.414063h18.277343v-27.414063c-.003906-25.191406-20.5-45.691406-45.695312-45.691406zm0 0" fill="url(#c)"/><path d="m366.269531 285.015625h-9.140625v74.675781c-2.859375-1.015625-5.933594-1.570312-9.136718-1.570312-15.117188 0-27.414063 12.296875-27.414063 27.414062 0 15.117188 12.296875 27.414063 27.414063 27.414063 15.117187 0 27.414062-12.296875 27.414062-27.414063v-80.683594c10.636719 3.777344 18.277344 13.941407 18.277344 25.855469v27.414063h18.277344v-27.414063c0-25.195312-20.5-45.691406-45.691407-45.691406zm0 0" fill="url(#d)"/><path d="m372.695312 191.464844-12.921874 12.921875-64.617188-64.617188 12.921875-12.921875zm0 0" fill="url(#f)"/><path d="m398.542969 165.617188-12.925781 12.921874-64.613282-64.617187 12.921875-12.921875zm0 0" fill="url(#g)"/><path d="m359.769531 152.695312 12.921875-12.921874 25.847656 25.847656-12.921874 12.921875zm0 0" fill="#3c1b13"/><path d="m359.773438 204.390625-25.847657-25.847656 12.925781-12.921875 25.84375 25.847656zm0 0" fill="#3c1b13"/><path d="m264.832031 349.210938c-.773437-9.046876-2.714843-12.277344 18.738281-22.875 6.71875-3.359376 14.214844-7.238282 21.710938-14.730469 16.800781-16.800781 17.445312-58.800781-14.085938-90.335938-25.070312-25.070312-66.941406-36.445312-90.464843-12.921875-4.910157 4.910156-5.945313 7.753906-13.050781 22.097656-10.855469 21.453126-13.828126 19.257813-23.003907 18.351563-10.984375-1.164063-27.527343-2.714844-45.75 15.507813-34.632812 34.632812-17.316406 77.539062 17.1875 112.046874.128907.128907.128907.128907.261719.257813 34.632812 34.632813 77.539062 52.207031 112.304688 17.445313 18.089843-18.089844 16.929687-34.246094 16.152343-44.84375zm0 0" fill="url(#i)"/><path d="m346.847656 191.464844-107.34375 107.347656-25.847656-25.847656 107.347656-107.347656h25.84375zm0 0" fill="#b35f49"/><path d="m233.039062 279.425781c-14.214843-14.214843-37.476562-14.214843-51.691406 0-14.214844 14.214844-14.214844 37.476563 0 51.695313 14.214844 14.214844 37.476563 14.214844 51.691406 0 14.21875-14.21875 14.21875-37.480469 0-51.695313zm0 0" fill="url(#j)"/><path d="m411.464844 126.847656-64.617188 64.617188-25.84375-25.847656 38.769532-64.617188 34.503906 17.1875zm0 0" fill="url(#k)"/></svg>