<?xml version="1.0" encoding="iso-8859-1"?>
<!-- Generator: Adobe Illustrator 19.0.0, SVG Export Plug-In . SVG Version: 6.00 Build 0)  -->
<svg xmlns="http://www.w3.org/2000/svg" xmlns:xlink="http://www.w3.org/1999/xlink" version="1.1" id="Layer_1" x="0px" y="0px" viewBox="0 0 512 512" style="enable-background:new 0 0 512 512;" xml:space="preserve" width="512" height="512">
<g>
	<circle style="fill:#3E5959;" cx="256" cy="256" r="256"/>
	<path style="fill:#293939;" d="M351.201,133.201l-25.09-25.09l-92.514,92.514l113.902,113.902l-1.892,1.892l-181.25-181.25   l-52.594,52.594L122,293.5L97.972,405.062l100.429,100.43C216.915,509.748,236.194,512,256,512c141.385,0,256-114.615,256-256   c0-4.266-0.11-8.507-0.316-12.723l-135.28-135.28L351.201,133.201z"/>
	<g>
		<polygon style="fill:#BBDCFF;" points="376.405,200.62 376.405,274.715 357.882,274.715 357.882,182.096   "/>
		<polygon style="fill:#9ABADB;" points="376.405,200.62 376.405,274.715 367.143,274.715 367.143,191.358   "/>
		<path style="fill:#25D9F8;" d="M97.929,405V191.358c0-10.212,8.312-18.524,18.524-18.524s18.524,8.312,18.524,18.524v64.834    h74.713v74.096l-19.141,18.524l-18.524-18.524v-37.048h-37.048V405H97.929z"/>
		<path style="fill:#38D3F8;" d="M172.008,154.309c0-15.366-12.403-27.77-27.77-27.77s-27.77,12.403-27.77,27.77    s12.403,27.77,27.77,27.77S172.008,169.675,172.008,154.309z"/>
		<path style="fill:#537983;" d="M320.834,256.191v37.048h-74.096v37.048h-74.713V405h242.046V256.191H320.834z"/>
		<rect x="367.143" y="256.191" style="fill:#3E5959;" width="46.927" height="148.809"/>
		<path style="fill:#FF9100;" d="M233.586,108l46.31,46.31l-46.31,46.31h142.82V108H233.586z"/>
	</g>
</g>















</svg>
