<?xml version="1.0" encoding="iso-8859-1"?>
<!-- Generator: Adobe Illustrator 19.0.0, SVG Export Plug-In . SVG Version: 6.00 Build 0)  -->
<svg version="1.1" id="Capa_1" xmlns="http://www.w3.org/2000/svg" xmlns:xlink="http://www.w3.org/1999/xlink" x="0px" y="0px"
	 viewBox="0 0 436.907 436.907" style="enable-background:new 0 0 436.907 436.907;" xml:space="preserve">
<circle style="fill:#45B39C;" cx="218.453" cy="218.453" r="218.453"/>
<path style="opacity:0.1;enable-background:new    ;" d="M436.076,236.878L329.111,129.913c-0.04-0.041-0.08-0.081-0.122-0.122
	l-0.085-0.084l-0.008,0.008c-2.062-1.989-4.854-3.225-7.945-3.225H113.626c-6.33,0-11.461,5.131-11.461,11.461v137.137
	c0,3.381,1.492,6.389,3.821,8.486l-0.055,0.005l2.969,2.969H90.454c0,7.213,3.213,13.663,8.27,18.04l-0.02,0.005l131.955,131.956
	C339.5,430.552,427.048,344.884,436.076,236.878z M113.489,286.548v-0.014c0.047,0.001,0.09,0.014,0.137,0.014H113.489z"/>
<path style="fill:#3A556A;" d="M320.953,126.49H113.626c-6.329,0-11.46,5.131-11.46,11.46v137.137c0,6.33,5.131,11.46,11.46,11.46
	h207.327c6.33,0,11.46-5.131,11.46-11.46V137.95C332.413,131.621,327.282,126.49,320.953,126.49z"/>
<g>
	<rect x="117.316" y="140.527" style="fill:#EBF0F3;" width="198.554" height="131.977"/>
	<circle style="fill:#EBF0F3;" cx="217.293" cy="133.871" r="4.915"/>
</g>
<path style="fill:#D5D6DB;" d="M90.453,286.548c0,13.182,10.686,23.868,23.868,23.868h208.263c13.182,0,23.868-10.686,23.868-23.868
	H90.453z"/>
<path style="fill:#64798A;" d="M250.98,302.929h-65.053c-2.455,0-4.446-1.991-4.446-4.446v0c0-2.456,1.991-4.446,4.446-4.446h65.053
	c2.455,0,4.446,1.991,4.446,4.446v0C255.426,300.938,253.435,302.929,250.98,302.929z"/>
<g>
	<rect x="137.591" y="159.836" style="fill:#27A2DB;" width="29.836" height="33.345"/>
	<rect x="195.174" y="159.836" style="fill:#27A2DB;" width="97.58" height="7.373"/>
	<rect x="195.174" y="176.507" style="fill:#27A2DB;" width="97.58" height="7.373"/>
	<rect x="195.174" y="191.42" style="fill:#27A2DB;" width="97.58" height="7.373"/>
	<rect x="137.25" y="206.336" style="fill:#27A2DB;" width="155.494" height="7.373"/>
	<rect x="137.25" y="221.252" style="fill:#27A2DB;" width="155.494" height="7.373"/>
	<rect x="137.25" y="236.169" style="fill:#27A2DB;" width="155.494" height="7.373"/>
	<rect x="137.25" y="251.085" style="fill:#27A2DB;" width="155.494" height="7.373"/>
</g>
<g>
	<path style="fill:#FCD462;" d="M300.118,222.006l-2.748-4.809l-1.075-1.873c-0.654-1.152-0.875-2.427-0.698-3.646
		c0.255-1.673,1.23-3.214,2.815-4.133c0.887-0.51,1.862-0.754,2.815-0.754c0.344,0,0.687,0.033,1.031,0.1
		c1.596,0.288,3.07,1.263,3.934,2.781l2.094,3.657l0.831,1.485c0,0,0,0,0.011,0.011c0.011,0.022,0.033,0.066,0.078,0.122
		c0.011,0.033,0.044,0.066,0.066,0.111c0.022,0.033,0.044,0.078,0.078,0.122c0.022,0.044,0.055,0.089,0.089,0.144l4.765,8.366"/>
	<path style="fill:#FCD462;" d="M300.041,222.05l-2.77-4.854l-3.158-5.519l-4.034-7.059c-1.308-2.283-3.701-3.568-6.161-3.568
		c-1.186,0-2.405,0.299-3.513,0.942c-3.391,1.939-4.577,6.272-2.626,9.663l0.011,0.022l3.158,5.519l1.54,2.704"/>
	<path style="fill:#FCD462;" d="M282.355,219.978l-1.596-2.781l-3.158-5.519l-3.114-5.441c-1.308-2.294-3.701-3.568-6.15-3.568
		c-1.197,0-2.405,0.299-3.513,0.931c-2.881,1.64-4.167,5.009-3.302,8.078c0.144,0.543,0.377,1.086,0.665,1.596l1.474,2.582
		l0.011,0.011l4.034,7.048"/>
	<path style="fill:#FCD462;" d="M309.116,214.814c0,0,0,0,0.011,0.011c0.011,0.022,0.033,0.066,0.078,0.122
		c0.011,0.033,0.044,0.066,0.066,0.111c0.022,0.033,0.044,0.078,0.078,0.122c0.022,0.044,0.055,0.089,0.089,0.144
		c2.061,3.269,13.386,21.841,12.821,33.067c-0.632,12.345,4.122,20.578,4.122,20.578l-18.739,10.483l-10.804,6.05l-4.976,2.781
		c-2.061-3.657-4.333-6.327-6.505-8.267c-0.033-0.022-0.055-0.055-0.089-0.078c-2.227-1.984-4.887-3.313-7.735-4.067
		c-1.596-0.432-3.258-0.676-4.92-0.765c-1.817-0.089-4.366-0.632-7.269-2.438c-1.452-0.898-2.992-2.117-4.577-3.734
		c-0.199-0.188-0.388-0.388-0.576-0.598c-2.105-2.261-4.477-4.399-6.848-6.316c-1.906-1.54-3.801-2.948-5.552-4.167
		c-3.147-2.194-5.818-3.823-7.192-4.632c-0.643-0.366-0.997-0.565-0.997-0.565s-2.848-3.025-3.025-5.884
		c-0.133-1.773,0.776-3.491,4.023-4.377c0.244-0.067,0.488-0.133,0.754-0.188c3.845-0.82,8.178-0.1,11.99,1.053
		c3.579,1.086,6.704,2.56,8.555,3.513c1.119,0.587,1.773,0.975,1.773,0.975l-0.576-0.975l-7.181-12.189l-2.937-4.987l-3.435-5.84
		l-0.31-0.532l-3.546-6.028l-3.247-5.519l-5.02-8.533c-0.698-1.219-1.031-2.56-1.031-3.867c0-2.006,0.776-3.978,2.194-5.441
		c0.499-0.521,1.075-0.975,1.729-1.352c1.285-0.731,2.682-1.064,4.056-1.031c2.648,0.066,5.197,1.463,6.604,3.934l10.106,16.29
		l2.582,4.178l0.011,0.011"/>
</g>
<g>
</g>
<g>
</g>
<g>
</g>
<g>
</g>
<g>
</g>
<g>
</g>
<g>
</g>
<g>
</g>
<g>
</g>
<g>
</g>
<g>
</g>
<g>
</g>
<g>
</g>
<g>
</g>
<g>
</g>
</svg>
