<?xml version="1.0" encoding="iso-8859-1"?>
<!-- Generator: Adobe Illustrator 19.0.0, SVG Export Plug-In . SVG Version: 6.00 Build 0)  -->
<svg version="1.1" id="Capa_1" xmlns="http://www.w3.org/2000/svg" xmlns:xlink="http://www.w3.org/1999/xlink" x="0px" y="0px"
	 viewBox="0 0 512 512" style="enable-background:new 0 0 512 512;" xml:space="preserve">
<circle style="fill:#FF328D;" cx="256" cy="256" r="256"/>
<path style="fill:#C40B5A;" d="M512,256c0-13.061-0.984-25.891-2.871-38.425l-60.121-60.122L89.004,406.276l95.632,95.632
	C207.29,508.47,231.231,512,256,512C397.385,512,512,397.385,512,256z"/>
<rect x="170.174" y="103.296" transform="matrix(-0.9273 -0.3744 0.3744 -0.9273 463.0529 577.2318)" style="fill:#DCE6D3;" width="234.837" height="280.689"/>
<polygon style="fill:#98B4B6;" points="449.008,157.453 340.805,113.766 234.257,373.443 343.921,417.721 "/>
<rect x="201.15" y="131.374" transform="matrix(-0.9273 -0.3744 0.3744 -0.9273 484.2596 544.565)" style="fill:#415BE9;" width="187.746" height="187.746"/>
<polygon style="fill:#062BE3;" points="417.2,173.344 330.691,138.415 259.424,312.107 346.91,347.43 "/>
<rect x="89" y="125.59" style="fill:#FFFFFF;" width="234.83" height="280.68"/>
<rect x="205.95" y="125.59" style="fill:#E0E0E0;" width="117.88" height="280.68"/>
<rect x="112.55" y="152.24" style="fill:#7AE5FE;" width="187.74" height="187.74"/>
<rect x="205.95" y="152.24" style="fill:#00BED2;" width="94.34" height="187.74"/>
<rect x="112.55" y="271.2" style="fill:#7A3817;" width="187.74" height="68.776"/>
<rect x="205.95" y="271.2" style="fill:#5D2307;" width="94.34" height="68.777"/>
<circle style="fill:#FE9A35;" cx="236.94" cy="213.73" r="44.767"/>
<path style="fill:#FF7C11;" d="M236.936,168.966c-0.21,0-0.417,0.013-0.626,0.016v89.501c0.209,0.003,0.416,0.016,0.626,0.016
	c24.724,0,44.767-20.043,44.767-44.767C281.702,189.009,261.66,168.966,236.936,168.966z"/>
<g>
</g>
<g>
</g>
<g>
</g>
<g>
</g>
<g>
</g>
<g>
</g>
<g>
</g>
<g>
</g>
<g>
</g>
<g>
</g>
<g>
</g>
<g>
</g>
<g>
</g>
<g>
</g>
<g>
</g>
</svg>
