<svg width="408" height="203" viewBox="0 0 408 203" fill="none" xmlns="http://www.w3.org/2000/svg">
<rect x="125.073" y="137.86" width="278.267" height="16" fill="#12DC9F"/>
<path d="M130.655 109.344C129.935 109.344 129.322 109.091 128.818 108.587C128.313 108.082 128.061 107.47 128.061 106.749V55.7241C128.061 55.0034 128.313 54.3908 128.818 53.8863C129.322 53.3818 129.935 53.1296 130.655 53.1296H139.087C139.808 53.1296 140.421 53.3818 140.925 53.8863C141.43 54.3908 141.682 55.0034 141.682 55.7241V59.3996C143.195 57.3817 145.213 55.6881 147.736 54.3187C150.33 52.8774 153.393 52.1206 156.925 52.0486C165.14 51.9044 170.87 55.1115 174.113 61.6698C175.771 58.787 178.149 56.4808 181.248 54.7512C184.419 52.9494 187.914 52.0486 191.734 52.0486C195.482 52.0486 198.869 52.9134 201.896 54.643C204.995 56.3727 207.409 59.0032 209.139 62.5346C210.94 65.9939 211.841 70.3902 211.841 75.7233V106.749C211.841 107.47 211.589 108.082 211.085 108.587C210.58 109.091 209.968 109.344 209.247 109.344H200.382C199.662 109.344 199.049 109.091 198.545 108.587C198.04 108.082 197.788 107.47 197.788 106.749V76.5881C197.788 73.345 197.319 70.7865 196.382 68.9128C195.446 66.9669 194.184 65.5976 192.599 64.8048C191.013 64.012 189.248 63.6157 187.302 63.6157C185.716 63.6157 184.131 64.012 182.545 64.8048C180.96 65.5976 179.662 66.9669 178.653 68.9128C177.644 70.7865 177.14 73.345 177.14 76.5881V106.749C177.14 107.47 176.888 108.082 176.383 108.587C175.879 109.091 175.266 109.344 174.546 109.344H165.681C164.888 109.344 164.24 109.091 163.735 108.587C163.303 108.082 163.087 107.47 163.087 106.749V76.5881C163.087 73.345 162.582 70.7865 161.573 68.9128C160.564 66.9669 159.267 65.5976 157.681 64.8048C156.096 64.012 154.402 63.6157 152.6 63.6157C150.943 63.6157 149.321 64.0481 147.736 64.9129C146.15 65.7057 144.853 67.039 143.844 68.9128C142.835 70.7865 142.331 73.345 142.331 76.5881V106.749C142.331 107.47 142.078 108.082 141.574 108.587C141.069 109.091 140.457 109.344 139.736 109.344H130.655ZM254.147 110.425C246.147 110.425 239.805 108.118 235.121 103.506C230.436 98.8935 227.914 92.3352 227.554 83.8311C227.481 83.1104 227.445 82.2095 227.445 81.1285C227.445 79.9754 227.481 79.0745 227.554 78.4259C227.842 73.0207 229.067 68.3362 231.229 64.3724C233.463 60.4086 236.526 57.3817 240.418 55.2917C244.31 53.1296 248.886 52.0486 254.147 52.0486C259.985 52.0486 264.885 53.2737 268.849 55.7241C272.813 58.1024 275.804 61.4536 277.822 65.7777C279.84 70.0298 280.849 74.9666 280.849 80.588V82.8581C280.849 83.5788 280.596 84.1914 280.092 84.6959C279.587 85.2004 278.939 85.4526 278.146 85.4526H242.256C242.256 85.4526 242.256 85.5607 242.256 85.7769C242.256 85.9931 242.256 86.1733 242.256 86.3175C242.328 88.8399 242.796 91.1821 243.661 93.3442C244.598 95.4342 245.931 97.1278 247.661 98.4251C249.463 99.7223 251.589 100.371 254.039 100.371C256.057 100.371 257.751 100.083 259.12 99.5061C260.489 98.8575 261.606 98.1368 262.471 97.344C263.336 96.5513 263.948 95.9027 264.309 95.3982C264.957 94.5333 265.462 94.0289 265.822 93.8847C266.255 93.6685 266.867 93.5604 267.66 93.5604H276.957C277.678 93.5604 278.254 93.7766 278.687 94.209C279.191 94.6415 279.407 95.182 279.335 95.8306C279.263 96.9837 278.651 98.389 277.497 100.047C276.416 101.704 274.831 103.326 272.741 104.911C270.651 106.497 268.02 107.83 264.849 108.911C261.75 109.92 258.183 110.425 254.147 110.425ZM242.256 76.3719H266.147V76.0476C266.147 73.2369 265.678 70.7866 264.741 68.6965C263.804 66.6065 262.435 64.9489 260.633 63.7238C258.832 62.4986 256.669 61.886 254.147 61.886C251.625 61.886 249.463 62.4986 247.661 63.7238C245.859 64.9489 244.49 66.6065 243.553 68.6965C242.688 70.7866 242.256 73.2369 242.256 76.0476V76.3719ZM320.863 110.425C312.863 110.425 306.521 108.118 301.837 103.506C297.152 98.8935 294.63 92.3352 294.27 83.8311C294.198 83.1104 294.161 82.2095 294.161 81.1285C294.161 79.9754 294.198 79.0745 294.27 78.4259C294.558 73.0207 295.783 68.3362 297.945 64.3724C300.179 60.4086 303.242 57.3817 307.134 55.2917C311.026 53.1296 315.602 52.0486 320.863 52.0486C326.701 52.0486 331.601 53.2737 335.565 55.7241C339.529 58.1024 342.52 61.4536 344.538 65.7777C346.556 70.0298 347.565 74.9666 347.565 80.588V82.8581C347.565 83.5788 347.313 84.1914 346.808 84.6959C346.304 85.2004 345.655 85.4526 344.862 85.4526H308.972C308.972 85.4526 308.972 85.5607 308.972 85.7769C308.972 85.9931 308.972 86.1733 308.972 86.3175C309.044 88.8399 309.512 91.1821 310.377 93.3442C311.314 95.4342 312.647 97.1278 314.377 98.4251C316.179 99.7223 318.305 100.371 320.755 100.371C322.773 100.371 324.467 100.083 325.836 99.5061C327.205 98.8575 328.322 98.1368 329.187 97.344C330.052 96.5513 330.665 95.9027 331.025 95.3982C331.674 94.5333 332.178 94.0289 332.538 93.8847C332.971 93.6685 333.583 93.5604 334.376 93.5604H343.673C344.394 93.5604 344.97 93.7766 345.403 94.209C345.907 94.6415 346.123 95.182 346.051 95.8306C345.979 96.9837 345.367 98.389 344.214 100.047C343.133 101.704 341.547 103.326 339.457 104.911C337.367 106.497 334.736 107.83 331.565 108.911C328.466 109.92 324.899 110.425 320.863 110.425ZM308.972 76.3719H332.863V76.0476C332.863 73.2369 332.394 70.7866 331.457 68.6965C330.52 66.6065 329.151 64.9489 327.349 63.7238C325.548 62.4986 323.386 61.886 320.863 61.886C318.341 61.886 316.179 62.4986 314.377 63.7238C312.575 64.9489 311.206 66.6065 310.269 68.6965C309.404 70.7866 308.972 73.2369 308.972 76.0476V76.3719ZM388.557 109.344C384.233 109.344 380.594 108.587 377.639 107.073C374.684 105.56 372.486 103.326 371.044 100.371C369.603 97.344 368.882 93.5964 368.882 89.1282V64.5886H360.342C359.621 64.5886 359.009 64.3364 358.504 63.8319C358 63.3274 357.748 62.7148 357.748 61.9941V55.7241C357.748 55.0034 358 54.3908 358.504 53.8863C359.009 53.3818 359.621 53.1296 360.342 53.1296H368.882V35.1844C368.882 34.4637 369.099 33.8511 369.531 33.3466C370.035 32.8421 370.684 32.5899 371.477 32.5899H380.233C380.954 32.5899 381.567 32.8421 382.071 33.3466C382.575 33.8511 382.828 34.4637 382.828 35.1844V53.1296H396.341C397.061 53.1296 397.674 53.3818 398.178 53.8863C398.683 54.3908 398.935 55.0034 398.935 55.7241V61.9941C398.935 62.7148 398.683 63.3274 398.178 63.8319C397.674 64.3364 397.061 64.5886 396.341 64.5886H382.828V88.0471C382.828 91.002 383.332 93.3082 384.341 94.9658C385.422 96.6234 387.26 97.4522 389.854 97.4522H397.314C398.034 97.4522 398.647 97.7044 399.151 98.2089C399.656 98.7134 399.908 99.3259 399.908 100.047V106.749C399.908 107.47 399.656 108.082 399.151 108.587C398.647 109.091 398.034 109.344 397.314 109.344H388.557Z" fill="white"/>
<rect x="82.2568" y="121.757" width="24.0771" height="32.1028" fill="#369FFF"/>
<path fill-rule="evenodd" clip-rule="evenodd" d="M82.2568 105.705V121.757H98.2923C89.4347 121.748 82.2568 114.565 82.2568 105.705Z" fill="#369FFF"/>
<rect x="82.2568" y="49.1509" width="24.0771" height="32.1028" fill="#369FFF"/>
<path d="M50.1542 6.72186H82.257V153.86C64.5271 153.86 50.1542 139.487 50.1542 121.757V6.72186Z" fill="#369FFF"/>
<rect y="49.1511" width="32.1028" height="104.709" fill="#369FFF"/>
<path fill-rule="evenodd" clip-rule="evenodd" d="M27.4014 11.4232L16.0514 6.72186L4.70134 11.4232L0 22.7733L4.70134 34.1233L16.0514 38.8246L27.4014 34.1233L32.1028 22.7733L27.4014 11.4232ZM11.8543 16.5719C11.4906 16.3429 11.0308 16.6649 11.1216 17.085L13.7155 29.0861C13.8038 29.4949 14.3335 29.6078 14.5809 29.2706L17.3283 25.525C17.3909 25.4397 17.4797 25.3771 17.5812 25.347L22.1308 23.9937C22.5305 23.8748 22.6038 23.3403 22.2509 23.1181L11.8543 16.5719Z" fill="#12DC9F"/>
</svg>
